<svg width="40" height="40" viewBox="0 0 40 40" fill="none" xmlns="http://www.w3.org/2000/svg">
<path d="M15.775 27.5L20 23.1667L24.225 27.5L26.5 25.1667L22.275 20.8333L26.5 16.5L24.225 14.1667L20 18.5L15.775 14.1667L13.5 16.5L17.725 20.8333L13.5 25.1667L15.775 27.5ZM11.875 35C10.9812 35 10.2161 34.6736 9.57969 34.0208C8.94323 33.3681 8.625 32.5833 8.625 31.6667V10H7V6.66667H15.125V5H24.875V6.66667H33V10H31.375V31.6667C31.375 32.5833 31.0568 33.3681 30.4203 34.0208C29.7839 34.6736 29.0188 35 28.125 35H11.875ZM28.125 10H11.875V31.6667H28.125V10Z" fill="#FAFCFE"/>
</svg>
