<svg width="40" height="40" viewBox="0 0 40 40" fill="none" xmlns="http://www.w3.org/2000/svg">
<path d="M8.8 34C8.03 34 7.37083 33.7262 6.8225 33.1785C6.27417 32.6309 6 31.9725 6 31.2035V11.628C6 10.8589 6.27417 10.2006 6.8225 9.65293C7.37083 9.10529 8.03 8.83146 8.8 8.83146H21.295L18.495 11.628H8.8V31.2035H28.4V21.4856L31.2 18.6891V31.2035C31.2 31.9725 30.9258 32.6309 30.3775 33.1785C29.8292 33.7262 29.17 34 28.4 34H8.8ZM14.4 25.6105V19.6679L27.245 6.83895C27.525 6.5593 27.84 6.34956 28.19 6.20974C28.54 6.06991 28.89 6 29.24 6C29.6133 6 29.9692 6.06991 30.3075 6.20974C30.6458 6.34956 30.955 6.5593 31.235 6.83895L33.195 8.83146C33.4517 9.11111 33.65 9.41989 33.79 9.7578C33.93 10.0957 34 10.4395 34 10.789C34 11.1386 33.9358 11.4823 33.8075 11.8202C33.6792 12.1581 33.475 12.4669 33.195 12.7466L20.35 25.6105H14.4ZM17.2 22.814H19.16L27.28 14.7041L26.3 13.7253L25.285 12.7466L17.2 20.8215V22.814Z" fill="#FAFCFE"/>
</svg>
