<svg width="30" height="35" viewBox="0 0 30 35" fill="none" xmlns="http://www.w3.org/2000/svg">
<path d="M15 35L13.9595 34.1286C12.525 32.9551 0 22.3863 0 14.6556C0 6.56155 6.71575 0 15 0C23.2843 0 30 6.56155 30 14.6556C30 22.3864 17.475 32.9551 16.0465 34.1344L15 35ZM15 3.16897C8.51012 3.17614 3.25086 8.31465 3.24351 14.6555C3.24351 19.5122 10.9494 27.2705 15 30.8215C19.0507 27.2691 26.7565 19.5063 26.7565 14.6555C26.7491 8.31465 21.49 3.17621 15 3.16897Z" fill="white"/>
<path d="M15.0001 20.4649C11.7163 20.4649 9.0542 17.864 9.0542 14.6556C9.0542 11.4472 11.7163 8.84623 15.0001 8.84623C18.2839 8.84623 20.9459 11.4472 20.9459 14.6556C20.9459 17.864 18.284 20.4649 15.0001 20.4649ZM15.0001 11.7508C13.3582 11.7508 12.0271 13.0513 12.0271 14.6555C12.0271 16.2597 13.3582 17.5602 15.0001 17.5602C16.642 17.5602 17.973 16.2597 17.973 14.6555C17.973 13.0513 16.642 11.7508 15.0001 11.7508Z" fill="white"/>
</svg>
