<svg width="100" height="41" viewBox="0 0 100 41" fill="none" xmlns="http://www.w3.org/2000/svg">
<path d="M60.6758 32.2858C61.8849 31.5771 62.8422 30.6199 63.5463 29.4143C64.2502 28.2095 64.6025 26.8976 64.6025 25.4792C64.6025 24.0619 64.2411 22.7589 63.5192 21.5708C62.7965 20.3835 61.831 19.4439 60.6214 18.7526C59.4113 18.0613 58.0844 17.7156 56.6406 17.7156C55.2323 17.7156 53.923 18.0705 52.7137 18.7792C51.5035 19.4887 50.5379 20.4367 49.816 21.6241C49.0933 22.8122 48.7327 24.1151 48.7327 25.5325C48.7327 26.9508 49.0933 28.2537 49.816 29.441C50.5379 30.6291 51.5035 31.5771 52.7137 32.2858C53.923 32.9954 55.25 33.3493 56.6946 33.3493C58.1385 33.3493 59.4655 32.9954 60.6758 32.2858M70.1271 30.3714C70.1271 32.1446 70.0907 33.7041 70.0188 35.0509C69.9459 36.3987 69.8919 37.2494 69.8562 37.6034C69.8562 37.8875 69.748 38.1352 69.5312 38.3478C69.3146 38.5606 69.0439 38.6669 68.7188 38.6669H65.8481C65.5952 38.6669 65.3607 38.5606 65.1442 38.3478C64.9273 38.1352 64.8003 37.8875 64.7649 37.6034L64.7109 35.2636C64.7109 35.193 64.6837 35.1398 64.6294 35.1042C64.5753 35.0692 64.5118 35.0866 64.44 35.1572C63.7171 36.1502 62.5984 36.9836 61.082 37.6565C59.5653 38.3304 58.103 38.6669 56.6946 38.6669C54.2751 38.6669 52.0367 38.0819 49.9785 36.9121C47.9203 35.7422 46.2954 34.147 45.1039 32.1262C43.9123 30.1057 43.3164 27.908 43.3164 25.5325C43.3164 23.1578 43.9123 20.9685 45.1039 18.9652C46.2954 16.9628 47.9203 15.3676 49.9785 14.1795C52.0367 12.9922 54.5986 12.788 56.7652 12.4335C57.7772 12.2679 63.9864 20.0023 65.9728 21.1189C67.9583 22.2356 66.7775 16.6969 67.9878 18.5931C69.1967 20.4899 69.8562 22.5905 69.9645 24.8944C70.0728 26.8444 70.1271 28.6698 70.1271 30.3714" fill="#FAFCFE"/>
<ellipse cx="56.7394" cy="25.6308" rx="13.3273" ry="13.2143" fill="#FAFCFE"/>
<path d="M39.9721 37.7049C39.9721 37.9531 39.8816 38.1745 39.7013 38.3686C39.5203 38.5635 39.2858 38.6608 38.9972 38.6608H35.9641C35.711 38.6608 35.485 38.5635 35.287 38.3686C35.0882 38.1745 34.9891 37.9531 34.9891 37.7049L34.8266 23.5796C34.8266 21.6331 34.2309 20.1106 33.0393 19.0128C31.8477 17.9159 30.4208 17.3668 28.7604 17.3668C27.1356 17.3668 25.7273 17.9159 24.5356 19.0128C23.3442 20.1106 22.7483 21.6331 22.7483 23.5796L22.5859 37.7049C22.5859 37.9531 22.4953 38.1745 22.3151 38.3686C22.134 38.5635 21.8996 38.6608 21.611 38.6608H18.5778C18.3249 38.6608 18.0989 38.5635 17.9008 38.3686C17.702 38.1745 17.603 37.9531 17.603 37.7049L17.3862 23.5796C17.3862 21.6331 16.7905 20.1106 15.5988 19.0128C14.4073 17.9159 12.9991 17.3668 11.3742 17.3668C9.74933 17.3668 8.33182 17.9159 7.12249 19.0128C5.91223 20.1106 5.30791 21.6331 5.30791 23.5796L5.14555 37.7049C5.14555 37.9531 5.05497 38.1745 4.87461 38.3686C4.69366 38.5635 4.45919 38.6608 4.17059 38.6608H1.13745C0.884498 38.6608 0.658433 38.5635 0.460424 38.3686C0.261596 38.1745 0.162595 37.9531 0.162595 37.7049L0 22.9955L0.0541209 13.8621C0.0541209 13.5791 0.153358 13.3492 0.352185 13.1717C0.550078 12.995 0.776143 12.9062 1.02921 12.9062H4.27894C4.53107 12.9062 4.74767 12.995 4.92885 13.1717C5.10909 13.3492 5.21744 13.5616 5.2538 13.8088V15.1896C5.93935 14.2693 6.83296 13.5791 7.93487 13.1186C9.03596 12.6589 10.2546 12.4282 11.5909 12.4282C13.2513 12.4282 14.8854 12.7826 16.4926 13.4902C18.0989 14.1987 19.3903 15.1721 20.3653 16.4109C22.4234 13.7557 25.2213 12.4282 28.7604 12.4282C31.2519 12.4282 33.3456 12.9509 35.0433 13.9948C36.7402 15.0394 38.0129 16.4109 38.8617 18.1103C39.7098 19.8094 40.1346 21.6331 40.1346 23.5796L39.9721 37.7049Z" fill="#FAFCFE"/>
<path d="M82.668 18.7129C81.4399 19.4108 80.4743 20.369 79.7703 21.5855C79.0661 22.803 78.7141 24.1277 78.7141 25.5591C78.7141 26.9911 79.0747 28.3067 79.7973 29.5056C80.5193 30.7053 81.4849 31.6627 82.6951 32.3783C83.9044 33.0947 85.2314 33.4521 86.6761 33.4521C88.0842 33.4521 89.3927 33.0947 90.6029 32.3783C91.8121 31.6627 92.7778 30.7053 93.5006 29.5056C94.2224 28.3067 94.5837 26.9911 94.5837 25.5591C94.5837 24.1277 94.2224 22.812 93.5006 21.6123C92.7778 20.4134 91.8121 19.4561 90.6029 18.7395C89.3927 18.0241 88.0656 17.6658 86.6219 17.6658C85.2136 17.6658 83.8952 18.0148 82.668 18.7129ZM73.1895 18.3639C73.1895 15.0708 73.2251 11.6342 73.2978 8.05424C73.3697 4.47528 73.424 2.14784 73.4604 1.07398C73.4604 0.787753 73.5771 0.536985 73.8124 0.322143C74.0467 0.107418 74.3083 5.16188e-07 74.5977 5.16188e-07H77.4685C77.757 5.16188e-07 78.0099 0.107418 78.2268 0.322143C78.4431 0.536985 78.5516 0.787753 78.5516 1.07398L78.6058 15.679C78.6058 15.7512 78.6415 15.8049 78.7141 15.84C78.786 15.8763 78.8578 15.8586 78.9307 15.7864C79.689 14.7847 80.8171 13.9523 82.3159 13.2896C83.8139 12.6276 85.2679 12.2961 86.6761 12.2961C89.0946 12.2961 91.3247 12.8961 93.3651 14.0949C95.4047 15.2947 97.0211 16.9056 98.2126 18.9276C99.4043 20.9504 100 23.1612 100 25.5591C100 27.9577 99.4043 30.1769 98.2126 32.2171C97.0211 34.2577 95.4047 35.8685 93.3651 37.0496C91.3247 38.2311 89.0946 38.8217 86.6761 38.8217C84.3285 38.8217 82.1535 38.2578 80.1494 37.1303C78.1455 36.0026 76.5384 34.4817 75.3289 32.5662C74.1186 30.6517 73.4604 28.5307 73.3522 26.2034C73.2437 24.2704 73.1895 21.6577 73.1895 18.3639" fill="#FAFCFE"/>
<path d="M66.3427 25.728C66.3427 30.9869 62.0431 35.25 56.7392 35.25C51.4354 35.25 47.1357 30.9869 47.1357 25.728C47.1357 20.4691 51.4354 16.2059 56.7392 16.2059C62.0431 16.2059 66.3427 20.4691 66.3427 25.728Z" fill="#3886C1"/>
<path d="M62.4227 25.7765C62.4227 28.8621 59.9 31.3634 56.788 31.3634C53.6761 31.3634 51.1533 28.8621 51.1533 25.7765C51.1533 22.6909 53.6761 20.1896 56.788 20.1896C59.9 20.1896 62.4227 22.6909 62.4227 25.7765Z" fill="#FAFCFE"/>
<rect width="36.0909" height="3.29935" transform="matrix(0.689289 -0.724486 0.73032 0.683106 44.209 38.7462)" fill="#FAFCFE"/>
<rect width="35.7181" height="3.29935" transform="matrix(0.689289 -0.724486 0.73032 0.683106 42.0566 36.3464)" fill="#3886C1"/>
<path d="M51.653 28.2026L53.4649 26.3599C53.2685 25.3733 53.5447 24.4461 54.2937 23.5785C55.0426 22.7109 56.0159 22.3672 57.2135 22.5475L59.0253 20.7048C58.6673 20.5392 58.3043 20.4158 57.9364 20.3345C57.5685 20.2531 57.1747 20.214 56.755 20.2172C55.1811 20.2289 53.8474 20.7908 52.7541 21.9028C51.6608 23.0148 51.1201 24.3591 51.1321 25.9359C51.1353 26.3564 51.1803 26.7502 51.267 27.1175C51.3538 27.4848 51.4824 27.8465 51.653 28.2026Z" fill="#FAFCFE"/>
</svg>
