<svg width="100" height="41" viewBox="0 0 100 41" fill="none" xmlns="http://www.w3.org/2000/svg">
<path d="M60.6747 31.6545C61.8838 30.963 62.8411 30.0292 63.5453 28.8531C64.2492 27.6776 64.6015 26.3977 64.6015 25.0139C64.6015 23.6312 64.2401 22.36 63.5182 21.2009C62.7954 20.0425 61.8299 19.1258 60.6204 18.4514C59.4102 17.7769 58.0833 17.4397 56.6395 17.4397C55.2312 17.4397 53.922 17.7859 52.7127 18.4773C51.5025 19.1695 50.5369 20.0944 49.815 21.2528C49.0923 22.4119 48.7317 23.6831 48.7317 25.0659C48.7317 26.4496 49.0923 27.7207 49.815 28.879C50.5369 30.0381 51.5025 30.963 52.7127 31.6545C53.922 32.3467 55.249 32.692 56.6935 32.692C58.1374 32.692 59.4645 32.3467 60.6747 31.6545M70.126 29.7868C70.126 31.5167 70.0896 33.0382 70.0177 34.3522C69.9448 35.667 69.8908 36.497 69.8551 36.8424C69.8551 37.1196 69.7469 37.3612 69.5301 37.5686C69.3135 37.7762 69.0428 37.8799 68.7177 37.8799H65.847C65.5941 37.8799 65.3596 37.7762 65.1431 37.5686C64.9262 37.3612 64.7992 37.1196 64.7638 36.8424L64.7098 34.5596C64.7098 34.4908 64.6826 34.4388 64.6284 34.4041C64.5742 34.37 64.5108 34.387 64.4389 34.4558C63.716 35.4246 62.5973 36.2377 61.0809 36.8942C59.5643 37.5516 58.1019 37.8799 56.6935 37.8799C54.274 37.8799 52.0356 37.3092 49.9775 36.1679C47.9193 35.0266 46.2944 33.4703 45.1029 31.4988C43.9113 29.5275 43.3154 27.3835 43.3154 25.0659C43.3154 22.7491 43.9113 20.6132 45.1029 18.6588C46.2944 16.7052 47.9193 15.1489 49.9775 13.9898C52.0356 12.8315 54.5976 12.6323 56.7641 12.2864C57.7761 12.1249 63.9854 19.6706 65.9718 20.76C67.9572 21.8494 66.7764 16.4458 67.9867 18.2957C69.1956 20.1463 69.8551 22.1956 69.9634 24.4433C70.0717 26.3458 70.126 28.1267 70.126 29.7868" fill="#3886C1"/>
<ellipse cx="56.7393" cy="25.162" rx="13.3272" ry="12.892" fill="#3886C1"/>
<path d="M39.9719 36.9412C39.9719 37.1834 39.8814 37.3994 39.7012 37.5888C39.5201 37.7789 39.2856 37.8738 38.997 37.8738H35.9639C35.7108 37.8738 35.4849 37.7789 35.2869 37.5888C35.088 37.3994 34.9889 37.1834 34.9889 36.9412L34.8265 23.1604C34.8265 21.2615 34.2308 19.7761 33.0391 18.7051C31.8476 17.635 30.4207 17.0992 28.7603 17.0992C27.1355 17.0992 25.7272 17.635 24.5355 18.7051C23.3441 19.7761 22.7482 21.2615 22.7482 23.1604L22.5858 36.9412C22.5858 37.1834 22.4952 37.3994 22.315 37.5888C22.1339 37.7789 21.8994 37.8738 21.6109 37.8738H18.5777C18.3248 37.8738 18.0988 37.7789 17.9007 37.5888C17.7019 37.3994 17.6029 37.1834 17.6029 36.9412L17.3862 23.1604C17.3862 21.2615 16.7904 19.7761 15.5987 18.7051C14.4073 17.635 12.999 17.0992 11.3741 17.0992C9.74929 17.0992 8.33178 17.635 7.12246 18.7051C5.9122 19.7761 5.30789 21.2615 5.30789 23.1604L5.14553 36.9412C5.14553 37.1834 5.05494 37.3994 4.87458 37.5888C4.69364 37.7789 4.45917 37.8738 4.17057 37.8738H1.13744C0.884494 37.8738 0.65843 37.7789 0.460422 37.5888C0.261595 37.3994 0.162594 37.1834 0.162594 36.9412L0 22.5906L0.0541207 13.68C0.0541207 13.4039 0.153357 13.1796 0.352184 13.0064C0.550075 12.834 0.77614 12.7474 1.0292 12.7474H4.27892C4.53105 12.7474 4.74765 12.834 4.92882 13.0064C5.10906 13.1796 5.21742 13.3869 5.25377 13.628V14.9751C5.93932 14.0773 6.83293 13.4039 7.93483 12.9547C9.03592 12.5062 10.2546 12.2811 11.5909 12.2811C13.2513 12.2811 14.8853 12.6268 16.4926 13.3172C18.0988 14.0084 19.3902 14.9581 20.3652 16.1666C22.4233 13.5762 25.2212 12.2811 28.7603 12.2811C31.2518 12.2811 33.3455 12.7911 35.0432 13.8094C36.74 14.8286 38.0127 16.1666 38.8615 17.8245C39.7096 19.4822 40.1345 21.2615 40.1345 23.1604L39.9719 36.9412Z" fill="#3886C1"/>
<path d="M82.6679 18.4127C81.4399 19.0936 80.4743 20.0285 79.7703 21.2153C79.0661 22.4031 78.714 23.6955 78.714 25.0919C78.714 26.489 79.0746 27.7725 79.7973 28.9422C80.5193 30.1126 81.4849 31.0467 82.695 31.7448C83.9043 32.4438 85.2314 32.7924 86.676 32.7924C88.0841 32.7924 89.3926 32.4438 90.6029 31.7448C91.8121 31.0467 92.7777 30.1126 93.5005 28.9422C94.2223 27.7725 94.5836 26.489 94.5836 25.0919C94.5836 23.6955 94.2223 22.4119 93.5005 21.2414C92.7777 20.0718 91.8121 19.1379 90.6029 18.4387C89.3926 17.7407 88.0656 17.3912 86.6219 17.3912C85.2135 17.3912 83.8951 17.7317 82.6679 18.4127ZM73.1895 18.0722C73.1895 14.8595 73.2251 11.5067 73.2978 8.01407C73.3697 4.52241 73.424 2.25174 73.4604 1.20407C73.4604 0.924831 73.5771 0.680179 73.8123 0.470578C74.0467 0.26109 74.3083 0.156293 74.5977 0.156293H77.4685C77.757 0.156293 78.0099 0.26109 78.2267 0.470578C78.4431 0.680179 78.5516 0.924831 78.5516 1.20407L78.6058 15.4529C78.6058 15.5233 78.6415 15.5757 78.714 15.6099C78.7859 15.6453 78.8578 15.6281 78.9306 15.5577C79.689 14.5803 80.8171 13.7683 82.3158 13.1217C83.8139 12.4758 85.2678 12.1525 86.676 12.1525C89.0945 12.1525 91.3246 12.7378 93.365 13.9074C95.4046 15.0779 97.0209 16.6495 98.2125 18.6222C99.4042 20.5957 99.9998 22.7525 99.9998 25.0919C99.9998 27.432 99.4042 29.5971 98.2125 31.5875C97.0209 33.5784 95.4046 35.1498 93.365 36.3022C91.3246 37.4549 89.0945 38.031 86.676 38.031C84.3284 38.031 82.1535 37.4809 80.1493 36.3809C78.1455 35.2808 76.5384 33.7969 75.3289 31.9282C74.1186 30.0603 73.4604 27.9911 73.3522 25.7205C73.2437 23.8347 73.1895 21.2858 73.1895 18.0722" fill="#3886C1"/>
<path d="M66.3416 25.2566C66.3416 30.3872 62.042 34.5464 56.7382 34.5464C51.4344 34.5464 47.1348 30.3872 47.1348 25.2566C47.1348 20.126 51.4344 15.9668 56.7382 15.9668C62.042 15.9668 66.3416 20.126 66.3416 25.2566Z" fill="#FAFCFE"/>
<path d="M62.4227 25.3042C62.4227 28.3145 59.8999 30.7548 56.788 30.7548C53.676 30.7548 51.1533 28.3145 51.1533 25.3042C51.1533 22.2939 53.676 19.8535 56.788 19.8535C59.8999 19.8535 62.4227 22.2939 62.4227 25.3042Z" fill="#3886C1"/>
<rect width="35.6314" height="3.26203" transform="matrix(0.698174 -0.715928 0.73867 0.674067 44.209 37.9575)" fill="#3886C1"/>
<rect width="35.2634" height="3.26203" transform="matrix(0.698174 -0.715928 0.73867 0.674067 42.0566 35.6162)" fill="#FAFCFE"/>
<path d="M51.6531 27.6708L53.4649 25.873C53.2685 24.9104 53.5448 24.0059 54.2937 23.1594C55.0426 22.313 56.0159 21.9777 57.2135 22.1535L59.0253 20.3558C58.6673 20.1943 58.3043 20.0739 57.9364 19.9945C57.5685 19.9152 57.1747 19.877 56.755 19.8801C55.1811 19.8916 53.8475 20.4398 52.7541 21.5246C51.6608 22.6095 51.1201 23.921 51.1321 25.4593C51.1353 25.8695 51.1803 26.2538 51.2671 26.6121C51.3538 26.9704 51.4825 27.3233 51.6531 27.6708Z" fill="#3886C1"/>
</svg>
