<svg width="40" height="40" viewBox="0 0 40 40" fill="none" xmlns="http://www.w3.org/2000/svg">
<path d="M5 30V10H35V30H5ZM18.5 25.7143H30.5V24.9286C30.5 23.8571 29.95 23.006 28.85 22.375C27.75 21.744 26.3 21.4286 24.5 21.4286C22.7 21.4286 21.25 21.744 20.15 22.375C19.05 23.006 18.5 23.8571 18.5 24.9286V25.7143ZM24.5 20C25.325 20 26.0312 19.7202 26.6187 19.1607C27.2062 18.6012 27.5 17.9286 27.5 17.1429C27.5 16.3571 27.2062 15.6845 26.6187 15.125C26.0312 14.5655 25.325 14.2857 24.5 14.2857C23.675 14.2857 22.9687 14.5655 22.3812 15.125C21.7937 15.6845 21.5 16.3571 21.5 17.1429C21.5 17.9286 21.7937 18.6012 22.3812 19.1607C22.9687 19.7202 23.675 20 24.5 20ZM8 27.1429H32V12.8571H8V27.1429Z" fill="#FAFCFE"/>
</svg>
