<svg width="40" height="40" viewBox="0 0 40 40" fill="none" xmlns="http://www.w3.org/2000/svg">
<path d="M22.7273 21.9375C21.5909 21.9375 20.625 21.5182 19.8295 20.6797C19.0341 19.8411 18.6364 18.8229 18.6364 17.625C18.6364 16.4271 19.0341 15.4089 19.8295 14.5703C20.625 13.7318 21.5909 13.3125 22.7273 13.3125C23.8636 13.3125 24.8295 13.7318 25.625 14.5703C26.4205 15.4089 26.8182 16.4271 26.8182 17.625C26.8182 18.8229 26.4205 19.8411 25.625 20.6797C24.8295 21.5182 23.8636 21.9375 22.7273 21.9375ZM13.1818 26.25C12.4318 26.25 11.7898 25.9685 11.2557 25.4055C10.7216 24.8424 10.4545 24.1656 10.4545 23.375V11.875C10.4545 11.0844 10.7216 10.4076 11.2557 9.84453C11.7898 9.28151 12.4318 9 13.1818 9H32.2727C33.0227 9 33.6648 9.28151 34.1989 9.84453C34.733 10.4076 35 11.0844 35 11.875V23.375C35 24.1656 34.733 24.8424 34.1989 25.4055C33.6648 25.9685 33.0227 26.25 32.2727 26.25H13.1818ZM15.9091 23.375H29.5455C29.5455 22.5844 29.8125 21.9076 30.3466 21.3445C30.8807 20.7815 31.5227 20.5 32.2727 20.5V14.75C31.5227 14.75 30.8807 14.4685 30.3466 13.9055C29.8125 13.3424 29.5455 12.6656 29.5455 11.875H15.9091C15.9091 12.6656 15.642 13.3424 15.108 13.9055C14.5739 14.4685 13.9318 14.75 13.1818 14.75V20.5C13.9318 20.5 14.5739 20.7815 15.108 21.3445C15.642 21.9076 15.9091 22.5844 15.9091 23.375ZM30.9091 32H7.72727C6.97727 32 6.33523 31.7185 5.80114 31.1555C5.26705 30.5924 5 29.9156 5 29.125V13.3125H7.72727V29.125H30.9091V32Z" fill="#FAFCFE"/>
</svg>
