<svg width="40" height="40" viewBox="0 0 40 40" fill="none" xmlns="http://www.w3.org/2000/svg">
<path d="M27 33H34V29.875C33.9999 28.9008 33.7279 27.9509 33.2218 27.1572C32.7157 26.3636 32.0005 25.7656 31.1758 25.4465C30.3512 25.1274 29.4579 25.1029 28.6202 25.3766C27.7825 25.6502 27.042 26.2084 26.5016 26.9734M27 33H13M27 33V29.875C27 28.85 26.8236 27.8703 26.5016 26.9734M26.5016 26.9734C25.9817 25.5234 25.0845 24.2804 23.9256 23.4049C22.7667 22.5293 21.3994 22.0614 20 22.0614C18.6006 22.0614 17.2333 22.5293 16.0744 23.4049C14.9155 24.2804 14.0183 25.5234 13.4984 26.9734M13 33H6V29.875C6.00006 28.9008 6.27207 27.9509 6.77821 27.1572C7.28434 26.3636 7.99946 25.7656 8.82415 25.4465C9.64884 25.1274 10.5421 25.1029 11.3798 25.3766C12.2175 25.6502 12.958 26.2084 13.4984 26.9734M13 33V29.875C13 28.85 13.1764 27.8703 13.4984 26.9734M24.2 12.6875C24.2 13.9307 23.7575 15.123 22.9698 16.0021C22.1822 16.8811 21.1139 17.375 20 17.375C18.8861 17.375 17.8178 16.8811 17.0302 16.0021C16.2425 15.123 15.8 13.9307 15.8 12.6875C15.8 11.4443 16.2425 10.252 17.0302 9.37294C17.8178 8.49386 18.8861 8 20 8C21.1139 8 22.1822 8.49386 22.9698 9.37294C23.7575 10.252 24.2 11.4443 24.2 12.6875ZM32.6 17.375C32.6 18.2038 32.305 18.9987 31.7799 19.5847C31.2548 20.1708 30.5426 20.5 29.8 20.5C29.0574 20.5 28.3452 20.1708 27.8201 19.5847C27.295 18.9987 27 18.2038 27 17.375C27 16.5462 27.295 15.7513 27.8201 15.1653C28.3452 14.5792 29.0574 14.25 29.8 14.25C30.5426 14.25 31.2548 14.5792 31.7799 15.1653C32.305 15.7513 32.6 16.5462 32.6 17.375ZM13 17.375C13 18.2038 12.705 18.9987 12.1799 19.5847C11.6548 20.1708 10.9426 20.5 10.2 20.5C9.45739 20.5 8.7452 20.1708 8.2201 19.5847C7.695 18.9987 7.4 18.2038 7.4 17.375C7.4 16.5462 7.695 15.7513 8.2201 15.1653C8.7452 14.5792 9.45739 14.25 10.2 14.25C10.9426 14.25 11.6548 14.5792 12.1799 15.1653C12.705 15.7513 13 16.5462 13 17.375Z" stroke="#FAFCFE" stroke-width="2" stroke-linecap="round" stroke-linejoin="round"/>
</svg>
