<svg width="40" height="40" viewBox="0 0 40 40" fill="none" xmlns="http://www.w3.org/2000/svg">
<path d="M5.45455 29V26.1667H34.5455V29H5.45455ZM7.12727 20.4292L5.23636 19.3667L6.47273 17.2417H4V15.1167H6.47273L5.23636 13.0625L7.12727 12L8.36364 14.0542L9.6 12L11.4909 13.0625L10.2545 15.1167H12.7273V17.2417H10.2545L11.4909 19.3667L9.6 20.4292L8.36364 18.3042L7.12727 20.4292ZM18.7636 20.4292L16.8727 19.3667L18.1091 17.2417H15.6364V15.1167H18.1091L16.8727 13.0625L18.7636 12L20 14.0542L21.2364 12L23.1273 13.0625L21.8909 15.1167H24.3636V17.2417H21.8909L23.1273 19.3667L21.2364 20.4292L20 18.3042L18.7636 20.4292ZM30.4 20.4292L28.5091 19.3667L29.7455 17.2417H27.2727V15.1167H29.7455L28.5091 13.0625L30.4 12L31.6364 14.0542L32.8727 12L34.7636 13.0625L33.5273 15.1167H36V17.2417H33.5273L34.7636 19.3667L32.8727 20.4292L31.6364 18.3042L30.4 20.4292Z" fill="#FAFCFE"/>
</svg>
