<svg width="40" height="40" viewBox="0 0 40 40" fill="none" xmlns="http://www.w3.org/2000/svg">
<path d="M29.8 30.8889H10.2V32.4444C10.2 33.3036 9.57319 34 8.8 34H7.4C6.62681 34 6 33.3036 6 32.4444V16.8889L9.4727 7.88558C9.91392 6.74167 10.9262 6 12.0463 6H27.9537C29.0738 6 30.086 6.74167 30.5273 7.88558L34 16.8889V32.4444C34 33.3036 33.3732 34 32.6 34H31.2C30.4268 34 29.8 33.3036 29.8 32.4444V30.8889ZM31.2 20H8.8V27.7778H31.2V20ZM9.04632 16.8889H30.9537L27.9537 9.11111H12.0463L9.04632 16.8889ZM12.3 26.2222C11.1402 26.2222 10.2 25.1775 10.2 23.8889C10.2 22.6003 11.1402 21.5556 12.3 21.5556C13.4598 21.5556 14.4 22.6003 14.4 23.8889C14.4 25.1775 13.4598 26.2222 12.3 26.2222ZM27.7 26.2222C26.5402 26.2222 25.6 25.1775 25.6 23.8889C25.6 22.6003 26.5402 21.5556 27.7 21.5556C28.8598 21.5556 29.8 22.6003 29.8 23.8889C29.8 25.1775 28.8598 26.2222 27.7 26.2222Z" fill="#FAFCFE"/>
</svg>
