<svg width="40" height="40" viewBox="0 0 40 40" fill="none" xmlns="http://www.w3.org/2000/svg">
<path d="M20.5035 19.6C21.2564 19.6 21.8997 19.3255 22.4336 18.7764C22.9674 18.2274 23.2344 17.5674 23.2344 16.7964C23.2344 16.0255 22.9663 15.3667 22.4301 14.82C21.894 14.2733 21.2494 14 20.4965 14C19.7436 14 19.1003 14.2745 18.5664 14.8236C18.0326 15.3726 17.7656 16.0326 17.7656 16.8036C17.7656 17.5745 18.0337 18.2333 18.5699 18.78C19.106 19.3267 19.7506 19.6 20.5035 19.6ZM20.5 32.84C23.9635 29.6133 26.5221 26.6867 28.1758 24.06C29.8294 21.4333 30.6562 19.12 30.6562 17.12C30.6562 13.9789 29.6759 11.407 27.7152 9.4042C25.7545 7.4014 23.3494 6.4 20.5 6.4C17.6506 6.4 15.2455 7.4014 13.2848 9.4042C11.3241 11.407 10.3438 13.9789 10.3438 17.12C10.3438 19.12 11.1901 21.4333 12.8828 24.06C14.5755 26.6867 17.1146 29.6133 20.5 32.84ZM20.5 36C16.3073 32.3467 13.1758 28.9533 11.1055 25.82C9.03516 22.6867 8 19.7867 8 17.12C8 13.12 9.25651 9.93333 11.7695 7.56C14.2826 5.18667 17.1927 4 20.5 4C23.8073 4 26.7174 5.18667 29.2305 7.56C31.7435 9.93333 33 13.12 33 17.12C33 19.7867 31.9648 22.6867 29.8945 25.82C27.8242 28.9533 24.6927 32.3467 20.5 36Z" fill="#FAFCFE"/>
</svg>
